<svg data-v-423bf9ae="" xmlns="http://www.w3.org/2000/svg" viewBox="0 0 492 112" class="iconLeftSlogan"><!----><!----><!----><g data-v-423bf9ae="" id="d9c81af4-5ca2-4fe8-8ce6-a14176ab65b7" fill="#000000" transform="matrix(4.29799455121286,0,0,4.29799455121286,128.27030191472926,-16.547279089117964)"><path d="M2.65 13.02L2.65 13.02L2.65 13.02Q3.72 10.77 5.45 7.42L5.45 7.42L5.45 7.42Q6.13 6.08 6.78 5.54L6.78 5.54L6.78 5.54Q6.99 5.36 8.81 4.34L8.81 4.34L8.81 4.34Q9.07 4.19 9.34 4.02L9.34 4.02L9.34 4.02Q9.66 3.85 9.93 3.85L9.93 3.85L9.93 4.06L9.93 4.06Q9.30 4.54 9.09 5.18L9.09 5.18L9.09 5.18Q8.93 5.66 8.93 6.61L8.93 6.61L8.93 6.61Q8.93 9.37 10.35 12.46L10.35 12.46L10.35 12.46Q10.42 12.61 11.00 13.41L11.00 13.41L11.00 13.41Q11.48 14.06 11.48 14.34L11.48 14.34L11.48 14.34Q11.48 14.98 10.81 15.30L10.81 15.30L10.81 15.30Q10.29 15.55 9.56 15.55L9.56 15.55L9.56 15.55Q8.68 15.55 8.06 14.15L8.06 14.15L8.06 14.15Q7.92 13.82 7.41 12.04L7.41 12.04L7.41 12.04Q7.25 12.12 5.96 12.56L5.96 12.56L5.96 12.56Q4.76 12.96 4.75 13.02L4.75 13.02L4.05 15.12L4.05 15.12Q3.96 15.26 3.77 15.40L3.77 15.40L0.55 17.64L0.55 17.64Q0.31 17.81 0.10 17.81L0.10 17.81L0.10 17.81Q0.10 17.50 0.52 17.00L0.52 17.00L0.52 17.00Q1.04 16.37 1.11 16.24L1.11 16.24L1.11 16.24Q1.86 14.80 2.51 13.44L2.51 13.44L2.51 13.44Q2.60 13.23 2.65 13.02ZM6.43 8.54L6.43 8.54L6.43 8.54Q6.33 8.58 5.88 9.72L5.88 9.72L5.88 9.72Q5.43 10.85 5.43 11.06L5.43 11.06L6.99 11.06L6.99 11.06Q7.01 11.06 7.07 10.94L7.07 10.94L7.07 10.94Q7.13 10.82 7.13 10.78L7.13 10.78L7.13 10.78Q7.13 10.58 6.82 9.58L6.82 9.58L6.82 9.58Q6.51 8.58 6.43 8.54ZM13.79 15.44L13.79 15.44L13.79 15.44Q13.51 15.44 12.97 15.61L12.97 15.61L12.97 15.61Q12.43 15.78 12.15 15.78L12.15 15.78L12.15 15.78Q12.15 15.44 12.35 14.84L12.35 14.84L12.35 14.84Q12.57 14.13 12.61 13.92L12.61 13.92L12.61 13.92Q12.77 13.02 12.77 10.49L12.77 10.49L12.77 9.39L12.75 8.32L12.75 8.32Q12.75 8.01 12.47 7.41L12.47 7.41L12.47 7.41Q12.19 6.82 12.19 6.57L12.19 6.57L12.19 6.50L12.19 6.50Q13.22 5.77 13.72 5.50L13.72 5.50L13.72 5.50Q14.64 5.01 15.43 5.01L15.43 5.01L15.43 5.01Q15.43 5.54 15.22 6.52L15.22 6.52L15.22 6.52Q15.01 7.55 14.99 8.04L14.99 8.04L14.99 8.04Q14.94 10.25 14.99 13.22L14.99 13.22L14.57 13.92L14.71 13.92L14.71 13.92Q14.91 13.92 15.31 13.84L15.31 13.84L15.31 13.84Q15.71 13.76 15.90 13.76L15.90 13.76L15.90 13.76Q16.38 13.76 17.34 13.92L17.34 13.92L17.34 13.92Q18.30 14.07 18.77 14.07L18.77 14.07L18.77 14.07Q18.94 14.07 19.28 13.99L19.28 13.99L19.28 13.99Q19.61 13.90 19.78 13.90L19.78 13.90L19.75 14.06L19.75 14.06Q19.49 14.87 18.63 15.39L18.63 15.39L18.63 15.39Q17.85 15.88 16.95 15.88L16.95 15.88L16.95 15.88Q16.42 15.88 15.37 15.66L15.37 15.66L15.37 15.66Q14.32 15.44 13.79 15.44ZM25.62 13.41L25.62 13.41L21.34 13.44L21.34 13.44Q20.90 13.38 20.55 12.84L20.55 12.84L20.55 12.84Q20.48 12.73 20.48 12.54L20.48 12.54L20.48 12.54Q20.48 12.07 20.71 11.70L20.71 11.70L20.71 11.70Q20.97 11.28 21.42 11.28L21.42 11.28L21.42 11.28Q22.79 11.28 22.79 11.28L22.79 11.28L25.62 11.30L25.62 11.30Q25.96 11.30 26.14 11.75L26.14 11.75L26.14 11.75Q26.28 12.10 26.28 12.49L26.28 12.49L26.28 12.49Q26.28 12.74 26.07 13.08L26.07 13.08L26.07 13.08Q25.86 13.41 25.62 13.41ZM28.18 10.22L28.18 10.22L28.18 10.22Q28.18 8.97 28.17 8.75L28.17 8.75L28.17 8.75Q28.13 8.08 27.89 7.32L27.89 7.32L27.89 7.32Q27.76 7.13 27.61 6.90L27.61 6.90L27.59 6.75L27.59 6.75Q27.59 6.44 30.55 5.49L30.55 5.49L30.55 5.49Q30.84 5.49 30.84 5.71L30.84 5.71L30.84 5.71Q30.84 5.78 30.70 5.96L30.70 5.96L30.70 5.96Q30.56 6.15 30.55 6.20L30.55 6.20L30.55 6.20Q30.39 8.18 30.39 9.03L30.39 9.03L30.39 9.03Q30.39 9.09 30.41 9.42L30.41 9.42L30.55 9.56L30.76 9.56L30.76 9.56Q30.84 9.56 30.94 9.58L30.94 9.58L31.05 9.58L31.05 9.58Q31.93 9.58 32.13 9.49L32.13 9.49L32.13 9.49Q32.52 9.32 32.52 8.65L32.52 8.65L32.52 8.65Q32.52 8.27 32.37 7.53L32.37 7.53L32.37 7.53Q32.21 6.78 32.21 6.40L32.21 6.40L32.21 6.40Q32.21 5.96 33.53 5.42L33.53 5.42L33.53 5.42Q34.72 4.93 35.34 4.93L35.34 4.93L35.34 4.93Q35.34 5.40 35.11 6.34L35.11 6.34L35.11 6.34Q34.89 7.27 34.89 7.74L34.89 7.74L34.89 14.60L34.61 14.88L32.65 15.72L32.65 15.72Q31.78 16.20 31.50 16.20L31.50 16.20L31.50 16.20Q31.50 15.90 31.74 15.47L31.74 15.47L31.74 15.47Q32.03 14.92 32.09 14.74L32.09 14.74L32.09 14.74Q32.51 13.24 32.51 11.30L32.51 11.30L32.51 11.30Q32.51 11.10 32.12 11.10L32.12 11.10L31.81 11.10L31.81 11.10Q30.83 11.10 30.55 11.24L30.55 11.24L30.34 11.38L30.34 15.16L29.15 15.86L29.15 15.86Q28.71 16.16 28.27 16.44L28.27 16.44L28.27 16.44Q27.73 16.76 27.29 16.76L27.29 16.76L27.29 16.76Q27.29 16.38 27.55 15.68L27.55 15.68L27.55 15.68Q27.85 14.91 27.89 14.60L27.89 14.60L27.89 14.60Q28.14 12.80 28.17 11.80L28.17 11.80L28.17 11.80Q28.18 11.33 28.18 10.22ZM38.43 13.02L38.43 13.02L38.43 13.02Q39.51 10.77 41.23 7.42L41.23 7.42L41.23 7.42Q41.92 6.08 42.56 5.54L42.56 5.54L42.56 5.54Q42.77 5.36 44.59 4.34L44.59 4.34L44.59 4.34Q44.86 4.19 45.12 4.02L45.12 4.02L45.12 4.02Q45.44 3.85 45.71 3.85L45.71 3.85L45.71 4.06L45.71 4.06Q45.08 4.54 44.87 5.18L44.87 5.18L44.87 5.18Q44.72 5.66 44.72 6.61L44.72 6.61L44.72 6.61Q44.72 9.37 46.13 12.46L46.13 12.46L46.13 12.46Q46.20 12.61 46.79 13.41L46.79 13.41L46.79 13.41Q47.26 14.06 47.26 14.34L47.26 14.34L47.26 14.34Q47.26 14.98 46.59 15.30L46.59 15.30L46.59 15.30Q46.07 15.55 45.35 15.55L45.35 15.55L45.35 15.55Q44.46 15.55 43.85 14.15L43.85 14.15L43.85 14.15Q43.71 13.82 43.19 12.04L43.19 12.04L43.19 12.04Q43.04 12.12 41.75 12.56L41.75 12.56L41.75 12.56Q40.54 12.96 40.53 13.02L40.53 13.02L39.83 15.12L39.83 15.12Q39.75 15.26 39.55 15.40L39.55 15.40L36.33 17.64L36.33 17.64Q36.09 17.81 35.88 17.81L35.88 17.81L35.88 17.81Q35.88 17.50 36.30 17.00L36.30 17.00L36.30 17.00Q36.82 16.37 36.89 16.24L36.89 16.24L36.89 16.24Q37.65 14.80 38.29 13.44L38.29 13.44L38.29 13.44Q38.39 13.23 38.43 13.02ZM42.21 8.54L42.21 8.54L42.21 8.54Q42.11 8.58 41.66 9.72L41.66 9.72L41.66 9.72Q41.22 10.85 41.22 11.06L41.22 11.06L42.77 11.06L42.77 11.06Q42.80 11.06 42.85 10.94L42.85 10.94L42.85 10.94Q42.91 10.82 42.91 10.78L42.91 10.78L42.91 10.78Q42.91 10.58 42.60 9.58L42.60 9.58L42.60 9.58Q42.29 8.58 42.21 8.54ZM47.81 13.79L47.81 13.79L47.81 13.79Q47.81 13.33 47.99 12.87L47.99 12.87L47.99 12.87Q48.12 12.39 48.26 11.91L48.26 11.91L48.26 11.91Q48.44 11.35 48.79 11.35L48.79 11.35L49.11 11.35L49.11 11.35Q49.28 12.54 50.46 13.45L50.46 13.45L50.46 13.45Q51.59 14.35 52.81 14.35L52.81 14.35L52.81 14.35Q53.41 14.35 53.41 13.86L53.41 13.86L53.41 13.86Q53.41 13.47 52.77 12.94L52.77 12.94L52.72 12.88L52.72 12.88Q52.68 12.85 52.65 12.84L52.65 12.84L52.67 12.85L52.67 12.85Q52.02 12.59 49.81 11.35L49.81 11.35L49.81 11.35Q48.45 10.60 48.45 9.41L48.45 9.41L48.45 9.41Q48.45 8.01 50.22 6.76L50.22 6.76L50.22 6.76Q51.84 5.61 53.33 5.61L53.33 5.61L53.33 5.61Q54.26 5.61 54.82 6.17L54.82 6.17L54.82 6.17Q55.38 6.73 55.38 7.67L55.38 7.67L55.38 7.67Q55.38 8.36 54.47 9.25L54.47 9.25L54.47 9.25Q53.55 10.15 52.85 10.15L52.85 10.15L52.85 10.15Q52.85 9.94 52.94 9.51L52.94 9.51L52.94 9.51Q53.03 9.09 53.03 8.88L53.03 8.88L53.03 8.76L53.03 8.76Q53.02 8.68 53.02 8.61L53.02 8.61L53.02 8.34L53.02 8.34Q52.32 7.50 51.56 7.50L51.56 7.50L51.56 7.50Q50.51 7.50 50.51 8.41L50.51 8.41L50.51 8.41Q50.51 8.99 51.25 9.52L51.25 9.52L51.25 9.52Q51.77 9.88 53.02 10.47L53.02 10.47L53.02 10.47Q54.21 11.05 54.77 11.47L54.77 11.47L54.77 11.47Q55.64 12.12 55.64 12.85L55.64 12.85L55.64 12.94L55.64 12.94Q55.16 14.24 54.29 15.09L54.29 15.09L54.29 15.09Q53.27 16.10 52.02 16.10L52.02 16.10L52.02 16.10Q50.88 16.10 49.48 15.51L49.48 15.51L49.48 15.51Q47.81 14.81 47.81 13.79ZM57.39 10.22L57.39 10.22L57.39 10.22Q57.39 8.97 57.37 8.75L57.37 8.75L57.37 8.75Q57.33 8.08 57.09 7.32L57.09 7.32L57.09 7.32Q56.97 7.13 56.81 6.90L56.81 6.90L56.80 6.75L56.80 6.75Q56.80 6.44 59.75 5.49L59.75 5.49L59.75 5.49Q60.05 5.49 60.05 5.71L60.05 5.71L60.05 5.71Q60.05 5.78 59.91 5.96L59.91 5.96L59.91 5.96Q59.77 6.15 59.75 6.20L59.75 6.20L59.75 6.20Q59.60 8.18 59.60 9.03L59.60 9.03L59.60 9.03Q59.60 9.09 59.61 9.42L59.61 9.42L59.75 9.56L59.96 9.56L59.96 9.56Q60.05 9.56 60.14 9.58L60.14 9.58L60.26 9.58L60.26 9.58Q61.14 9.58 61.33 9.49L61.33 9.49L61.33 9.49Q61.73 9.32 61.73 8.65L61.73 8.65L61.73 8.65Q61.73 8.27 61.57 7.53L61.57 7.53L61.57 7.53Q61.42 6.78 61.42 6.40L61.42 6.40L61.42 6.40Q61.42 5.96 62.73 5.42L62.73 5.42L62.73 5.42Q63.92 4.93 64.54 4.93L64.54 4.93L64.54 4.93Q64.54 5.40 64.32 6.34L64.32 6.34L64.32 6.34Q64.09 7.27 64.09 7.74L64.09 7.74L64.09 14.60L63.81 14.88L61.85 15.72L61.85 15.72Q60.98 16.20 60.70 16.20L60.70 16.20L60.70 16.20Q60.70 15.90 60.94 15.47L60.94 15.47L60.94 15.47Q61.24 14.92 61.29 14.74L61.29 14.74L61.29 14.74Q61.71 13.24 61.71 11.30L61.71 11.30L61.71 11.30Q61.71 11.10 61.32 11.10L61.32 11.10L61.01 11.10L61.01 11.10Q60.03 11.10 59.75 11.24L59.75 11.24L59.54 11.38L59.54 15.16L58.35 15.86L58.35 15.86Q57.92 16.16 57.47 16.44L57.47 16.44L57.47 16.44Q56.94 16.76 56.49 16.76L56.49 16.76L56.49 16.76Q56.49 16.38 56.76 15.68L56.76 15.68L56.76 15.68Q57.05 14.91 57.09 14.60L57.09 14.60L57.09 14.60Q57.34 12.80 57.37 11.80L57.37 11.80L57.37 11.80Q57.39 11.33 57.39 10.22ZM68.11 5.24L68.56 5.24L68.56 5.24Q68.56 5.26 68.54 5.31L68.54 5.31L68.54 5.31Q68.53 5.35 68.53 5.38L68.53 5.38L68.39 5.66L68.39 5.66Q68.29 5.84 68.11 6.36L68.11 6.36L68.11 12.94L68.11 12.94Q68.25 13.59 68.25 13.92L68.25 13.92L68.25 14L68.25 14Q68.25 14.34 66.96 15.26L66.96 15.26L66.96 15.26Q65.67 16.18 65.27 16.18L65.27 16.18L65.27 16.18Q65.27 15.78 65.57 14.99L65.57 14.99L65.57 14.99Q65.87 14.20 65.87 13.78L65.87 13.78L65.87 6.78L65.87 6.78Q66.02 6.64 66.43 6.36L66.43 6.36L66.43 6.36Q67.84 5.39 68.11 5.24L68.11 5.24ZM70.49 11.20L70.49 11.20L70.49 11.20Q70.49 9.13 70.48 8.90L70.48 8.90L70.48 8.90Q70.46 8.68 70.18 8.03L70.18 8.03L70.18 8.03Q69.90 7.38 69.90 7.28L69.90 7.28L69.90 7.28Q69.90 6.97 71.40 6.29L71.40 6.29L71.40 6.29Q72.81 5.64 73.25 5.64L73.25 5.64L73.25 5.64Q73.25 7.69 74.82 10.43L74.82 10.43L74.82 10.43Q74.93 10.63 75.10 10.71L75.10 10.71L75.10 10.71Q75.21 10.44 75.50 10.00L75.50 10.00L75.50 10.00Q75.87 9.45 75.94 9.31L75.94 9.31L75.94 9.31Q76.26 8.71 76.92 7.49L76.92 7.49L76.92 7.49Q77.14 7.08 78.64 6.59L78.64 6.59L78.64 6.59Q80.01 6.15 80.64 6.15L80.64 6.15L80.64 6.15Q80.64 6.44 80.35 6.65L80.35 6.65L80.35 6.65Q79.94 6.94 79.86 7.07L79.86 7.07L79.86 7.07Q79.44 7.71 79.44 9.51L79.44 9.51L79.44 9.51Q79.44 10.25 79.58 11.72L79.58 11.72L79.58 11.72Q79.73 13.19 79.73 13.93L79.73 13.93L79.73 13.93Q79.73 14.50 79.69 14.76L79.69 14.76L79.69 14.76Q79.60 15.26 79.30 15.47L79.30 15.47L79.30 15.47Q78.15 16.28 77.87 16.45L77.87 16.45L77.87 16.45Q76.90 17.02 76.29 17.02L76.29 17.02L76.29 17.02Q76.29 16.79 76.45 16.59L76.45 16.59L76.45 16.59Q76.71 16.30 76.78 16.17L76.78 16.17L76.78 16.17Q77.21 15.36 77.21 13.85L77.21 13.85L77.21 13.85Q77.21 12.14 77.06 10.29L77.06 10.29L77.06 10.29Q76.99 10.40 76.06 12.81L76.06 12.81L76.06 12.81Q75.25 14.92 75.03 14.92L75.03 14.92L75.03 14.92Q74.40 14.92 73.00 12.67L73.00 12.67L73.00 12.67Q72.60 12.05 72.30 11.41L72.30 11.41L72.17 11.41L72.17 11.41Q72.17 12.04 72.30 13.31L72.30 13.31L72.30 13.31Q72.44 14.57 72.44 15.20L72.44 15.20L72.44 15.20Q72.44 15.32 71.02 16.27L71.02 16.27L71.02 16.27Q69.59 17.22 69.33 17.22L69.33 17.22L69.33 17.22Q69.33 16.86 69.78 16.09L69.78 16.09L69.78 16.09Q70.28 15.23 70.34 14.91L70.34 14.91L70.34 14.91Q70.49 14.07 70.49 11.20ZM84.17 5.24L84.62 5.24L84.62 5.24Q84.62 5.26 84.60 5.31L84.60 5.31L84.60 5.31Q84.59 5.35 84.59 5.38L84.59 5.38L84.45 5.66L84.45 5.66Q84.35 5.84 84.17 6.36L84.17 6.36L84.17 12.94L84.17 12.94Q84.31 13.59 84.31 13.92L84.31 13.92L84.31 14L84.31 14Q84.31 14.34 83.02 15.26L83.02 15.26L83.02 15.26Q81.73 16.18 81.33 16.18L81.33 16.18L81.33 16.18Q81.33 15.78 81.63 14.99L81.63 14.99L81.63 14.99Q81.93 14.20 81.93 13.78L81.93 13.78L81.93 6.78L81.93 6.78Q82.08 6.64 82.49 6.36L82.49 6.36L82.49 6.36Q83.90 5.39 84.17 5.24L84.17 5.24Z"></path></g><defs data-v-423bf9ae=""><linearGradient data-v-423bf9ae="" gradientTransform="rotate(25)" id="62af1832-d473-452d-89ba-ac1a297c4d88" x1="0%" y1="0%" x2="100%" y2="0%"><stop data-v-423bf9ae="" offset="0%" style="stop-color: rgb(40, 139, 88); stop-opacity: 1;"></stop><stop data-v-423bf9ae="" offset="100%" style="stop-color: rgb(21, 34, 241); stop-opacity: 1;"></stop></linearGradient></defs><g data-v-423bf9ae="" id="d0859bb5-a6f0-4b66-89c8-c1500b0b8fab" transform="matrix(1.1111121283637153,0,0,1.1111121283637153,-0.47060743967789165,0.4443518321088007)" stroke="none" fill="url(#62af1832-d473-452d-89ba-ac1a297c4d88)"><path d="M76.012 89.344l22.903-4.502-7.779-31.188-4.837.949-.167-.838c-.393-1.951-1.857-3.463-3.67-4.037l-3.187-14.436a3.846 3.846 0 0 0-1.542-2.14l-15.581-10.58-.09-.061-.357-.242-.019.029c-1.134-.689-2.445-1.121-3.859-1.144-3.11-.106-5.678 1.618-6.961 4.132l-9.059 12.627-16.142 4.83.28 1.117c-1.867.373-3.35 1.664-3.964 3.454l-6.464-4.453L1.085 62.259l11.49 7.917 1.903-23.114 7.481.343c-.145.443-.321.879-.343 1.368l-.032.727-5.171-.237-2.789 33.917 23.319 1.066.308-34.032-4.968-.226.032-.726c.027-.506-.113-.972-.222-1.444l12.978-2.771a3.853 3.853 0 0 0 2.183-1.492l1.854-2.579a80.2 80.2 0 0 0 .339 6.383C36.559 69.347 39.371 85.8 39.371 85.8s1.089-.85 3.888-1.352l.465 15.418 5.74.134 1.252-15.767c1.306.106 2.735.273 4.326.538 1.858.312 3.671.459 5.411.497l7.064 13.803 5.614-2.559-4.746-11.852c1.749-.287 3.372-.62 4.674-.975l-4.791-27.749 1.654-.332c-2.197-4.878-4.602-7.671-4.602-7.671.298-1.659.181-4.92-.081-8.357l.09-5.515 6.907 4.688 4.524 12.749c-.1.132-.249.211-.344.351a5.319 5.319 0 0 0-.791 4.023l.158.8-5.116 1.006 5.345 31.666zM30.068 49.887l-6.274-.287.036-.728c.063-1.512 1.216-2.665 2.658-2.897l.732 2.884 2.744-.585c.068.289.149.576.136.886l-.032.727zm47.729 5.549c-.158-.779.009-1.564.42-2.24l4.051-1.147c.836.425 1.496 1.185 1.694 2.153l.163.832-6.161 1.209-.167-.807zM55.802 18.892c1.388.201 2.734.052 3.991-.337 4.077-.515 8.868-3.439 7.621-9.96C65.751-.118 56.796 0 56.796 0c-4.909.222-8.181 2.825-9.148 6.08-.312 1.071-.045 1.971.42 2.719-.574 4.895 2.834 9.381 7.734 10.093z"></path><path d="M67.423 16.905c2.834 3.069 6.821 4.118 12.097-.031 0 0-4.132-.011-6.618-3.89-2.482-3.878-8.313.852-5.479 3.921z"></path></g><!----><g data-v-423bf9ae="" id="9a9e747a-6813-4497-97e7-ecc8dd197f37" fill="#000000" transform="matrix(2.735183193084422,0,0,2.735183193084422,127.93425665914856,50.97389922738792)"><path d="M0.28 3.68L0.28 3.68L0.28 3.68Q0.28 3.64 0.30 3.60L0.30 3.60L0.30 3.60Q0.32 3.56 0.41 3.50L0.41 3.50L0.41 3.50Q0.50 3.44 0.64 3.44L0.64 3.44L1.02 3.44L1.02 3.44Q1.36 3.44 2.11 3.49L2.11 3.49L2.11 3.49Q2.86 3.53 4.06 3.53L4.06 3.53L4.06 3.53Q5.05 3.53 5.82 3.49L5.82 3.49L5.82 3.49Q6.59 3.46 7.24 3.46L7.24 3.46L7.24 3.46Q7.48 3.46 7.48 3.79L7.48 3.79L7.48 3.79Q7.48 3.92 7.45 4.11L7.45 4.11L7.45 4.11Q7.42 4.30 7.36 4.61L7.36 4.61L7.36 4.61Q7.31 4.93 7.28 5.22L7.28 5.22L7.28 5.22Q7.25 5.50 7.07 5.50L7.07 5.50L7.07 5.50Q6.87 5.50 6.87 5.22L6.87 5.22L6.87 5.22Q6.87 4.30 6.23 4.26L6.23 4.26L6.23 4.26Q4.12 4.09 3.71 4.09L3.71 4.09L3.71 4.09Q3.08 4.09 2.93 4.24L2.93 4.24L2.93 4.24Q2.79 4.40 2.77 4.87L2.77 4.87L2.77 4.87Q2.77 4.94 2.77 4.98L2.77 4.98L2.77 4.98Q2.73 5.74 2.73 7.32L2.73 7.32L2.73 7.32Q2.73 8.01 2.98 8.02L2.98 8.02L2.98 8.02Q3.05 8.02 3.17 8.03L3.17 8.03L3.17 8.03Q3.29 8.04 3.33 8.04L3.33 8.04L3.33 8.04Q3.43 8.04 3.63 8.03L3.63 8.03L3.63 8.03Q3.82 8.02 3.93 8.02L3.93 8.02L4.37 8.02L4.37 8.02Q5.21 8.02 5.48 7.97L5.48 7.97L5.48 7.97Q5.75 7.92 5.98 7.77L5.98 7.77L5.98 7.77Q6.10 7.69 6.17 7.57L6.17 7.57L6.17 7.57Q6.24 7.46 6.27 7.31L6.27 7.31L6.27 7.31Q6.30 7.15 6.34 7.08L6.34 7.08L6.34 7.08Q6.38 7.01 6.51 7.01L6.51 7.01L6.51 7.01Q6.64 7.01 6.66 7.06L6.66 7.06L6.66 7.06Q6.69 7.10 6.69 7.24L6.69 7.24L6.69 7.24Q6.69 7.34 6.63 7.73L6.63 7.73L6.63 7.73Q6.57 8.12 6.57 8.40L6.57 8.40L6.57 8.40Q6.57 8.67 6.62 9.05L6.62 9.05L6.62 9.05Q6.66 9.44 6.66 9.55L6.66 9.55L6.66 9.55Q6.66 9.77 6.62 9.83L6.62 9.83L6.62 9.83Q6.57 9.90 6.47 9.90L6.47 9.90L6.47 9.90Q6.23 9.90 6.17 9.55L6.17 9.55L6.17 9.55Q6.17 9.52 6.16 9.42L6.16 9.42L6.16 9.42Q6.15 9.32 6.14 9.28L6.14 9.28L6.14 9.28Q6.13 9.24 6.10 9.16L6.10 9.16L6.10 9.16Q6.08 9.09 6.05 9.04L6.05 9.04L6.05 9.04Q6.02 9.00 5.98 8.95L5.98 8.95L5.98 8.95Q5.94 8.90 5.87 8.88L5.87 8.88L5.87 8.88Q5.67 8.79 5.17 8.74L5.17 8.74L5.17 8.74Q4.66 8.68 4.51 8.68L4.51 8.68L3.29 8.68L3.29 8.68Q2.72 8.68 2.72 8.95L2.72 8.95L2.72 8.95Q2.72 9.35 2.70 9.96L2.70 9.96L2.70 9.96Q2.69 10.57 2.69 10.96L2.69 10.96L2.69 10.96Q2.69 11.06 2.68 11.25L2.68 11.25L2.68 11.25Q2.67 11.44 2.67 11.52L2.67 11.52L2.67 11.52Q2.67 11.80 2.73 12.08L2.73 12.08L2.73 12.08Q2.79 12.36 3.06 12.67L3.06 12.67L3.06 12.67Q3.33 12.98 3.79 12.98L3.79 12.98L3.79 12.98Q4.21 12.98 4.21 13.23L4.21 13.23L4.21 13.23Q4.21 13.27 4.19 13.33L4.19 13.33L4.19 13.33Q4.16 13.38 4.05 13.44L4.05 13.44L4.05 13.44Q3.95 13.50 3.78 13.50L3.78 13.50L3.78 13.50Q3.56 13.50 3.07 13.44L3.07 13.44L3.07 13.44Q2.59 13.38 2.42 13.38L2.42 13.38L2.42 13.38Q2.03 13.38 1.55 13.43L1.55 13.43L1.55 13.43Q1.06 13.47 0.73 13.47L0.73 13.47L0.73 13.47Q0.45 13.47 0.45 13.31L0.45 13.31L0.45 13.31Q0.45 13.13 0.51 13.09L0.51 13.09L0.51 13.09Q0.57 13.05 1.05 12.88L1.05 12.88L1.05 12.88Q1.41 12.75 1.50 12.13L1.50 12.13L1.50 12.13Q1.58 11.51 1.60 9.60L1.60 9.60L1.60 9.60Q1.60 8.86 1.60 8.44L1.60 8.44L1.60 8.44Q1.60 8.06 1.62 7.26L1.62 7.26L1.62 7.26Q1.64 6.45 1.64 6.01L1.64 6.01L1.64 5.19L1.64 5.19Q1.64 4.27 0.98 3.96L0.98 3.96L0.98 3.96Q0.88 3.92 0.74 3.90L0.74 3.90L0.74 3.90Q0.60 3.88 0.51 3.88L0.51 3.88L0.51 3.88Q0.42 3.88 0.35 3.83L0.35 3.83L0.35 3.83Q0.28 3.78 0.28 3.68ZM14.21 13.33L14.21 13.33L14.21 13.33Q14.21 13.13 14.42 13.06L14.42 13.06L14.42 13.06Q14.87 12.89 15.20 12.31L15.20 12.31L15.20 12.31Q15.54 11.73 16.87 8.83L16.87 8.83L16.87 8.83Q18.24 5.87 19.29 3.63L19.29 3.63L19.29 3.63Q19.39 3.42 19.47 3.36L19.47 3.36L19.47 3.36Q19.54 3.30 19.71 3.30L19.71 3.30L19.71 3.30Q19.84 3.30 19.88 3.36L19.88 3.36L19.88 3.36Q19.92 3.42 20.06 3.82L20.06 3.82L20.06 3.82Q20.15 4.06 20.21 4.23L20.21 4.23L20.21 4.23Q20.27 4.40 20.41 4.77L20.41 4.77L20.41 4.77Q20.55 5.15 20.72 5.56L20.72 5.56L20.72 5.56Q21.17 6.66 22.27 9.22L22.27 9.22L22.27 9.22Q23.37 11.77 23.46 11.98L23.46 11.98L23.46 11.98Q23.70 12.46 24.00 12.71L24.00 12.71L24.00 12.71Q24.29 12.95 24.51 12.97L24.51 12.97L24.51 12.97Q24.72 12.99 24.87 13.04L24.87 13.04L24.87 13.04Q25.02 13.09 25.02 13.26L25.02 13.26L25.02 13.26Q25.02 13.47 24.64 13.47L24.64 13.47L24.64 13.47Q24.49 13.47 24.04 13.43L24.04 13.43L24.04 13.43Q23.59 13.38 23.38 13.38L23.38 13.38L23.38 13.38Q23.11 13.38 22.69 13.41L22.69 13.41L22.69 13.41Q22.27 13.44 22.08 13.44L22.08 13.44L22.08 13.44Q21.64 13.44 21.52 13.40L21.52 13.40L21.52 13.40Q21.41 13.37 21.41 13.24L21.41 13.24L21.41 13.24Q21.41 13.15 21.52 13.08L21.52 13.08L21.52 13.08Q21.63 13.02 21.76 13.00L21.76 13.00L21.76 13.00Q21.88 12.98 21.99 12.87L21.99 12.87L21.99 12.87Q22.11 12.77 22.11 12.59L22.11 12.59L22.11 12.59Q22.11 12.28 21.76 11.33L21.76 11.33L21.76 11.33Q21.41 10.37 21.17 9.93L21.17 9.93L21.17 9.93Q21.04 9.69 20.59 9.69L20.59 9.69L20.59 9.69Q20.52 9.69 19.98 9.70L19.98 9.70L19.98 9.70Q19.43 9.72 18.90 9.72L18.90 9.72L18.16 9.72L18.16 9.72Q17.53 9.72 17.37 9.79L17.37 9.79L17.37 9.79Q17.21 9.86 17.08 10.12L17.08 10.12L17.08 10.12Q17.00 10.30 16.80 10.70L16.80 10.70L16.80 10.70Q16.60 11.10 16.53 11.26L16.53 11.26L16.53 11.26Q16.46 11.41 16.36 11.65L16.36 11.65L16.36 11.65Q16.25 11.90 16.22 12.05L16.22 12.05L16.22 12.05Q16.18 12.19 16.18 12.31L16.18 12.31L16.18 12.31Q16.18 12.63 16.34 12.80L16.34 12.80L16.34 12.80Q16.51 12.96 16.70 12.98L16.70 12.98L16.70 12.98Q16.90 13.01 17.06 13.06L17.06 13.06L17.06 13.06Q17.22 13.12 17.22 13.26L17.22 13.26L17.22 13.26Q17.22 13.36 17.18 13.40L17.18 13.40L17.18 13.40Q17.14 13.45 16.98 13.45L16.98 13.45L16.98 13.45Q16.90 13.45 16.50 13.45L16.50 13.45L16.50 13.45Q16.10 13.44 15.82 13.44L15.82 13.44L15.82 13.44Q15.51 13.44 15.13 13.47L15.13 13.47L15.13 13.47Q14.74 13.50 14.62 13.50L14.62 13.50L14.62 13.50Q14.21 13.50 14.21 13.33ZM17.72 8.71L17.72 8.71L17.72 8.71Q17.72 8.89 17.85 8.93L17.85 8.93L17.85 8.93Q17.98 8.97 18.44 8.97L18.44 8.97L18.87 8.97L20.20 8.96L20.20 8.96Q20.75 8.96 20.75 8.74L20.75 8.74L20.75 8.74Q20.75 8.55 20.06 7.01L20.06 7.01L20.06 7.01Q19.38 5.46 19.19 5.46L19.19 5.46L19.19 5.46Q19.07 5.46 18.40 7.01L18.40 7.01L18.40 7.01Q17.72 8.55 17.72 8.71ZM32.91 10.82L32.91 10.82L32.91 10.82Q32.91 10.53 33.11 10.53L33.11 10.53L33.11 10.53Q33.29 10.53 33.33 10.67L33.33 10.67L33.33 10.67Q33.47 11.00 33.59 11.25L33.59 11.25L33.59 11.25Q33.71 11.49 33.98 11.85L33.98 11.85L33.98 11.85Q34.24 12.21 34.55 12.44L34.55 12.44L34.55 12.44Q34.86 12.67 35.34 12.84L35.34 12.84L35.34 12.84Q35.83 13.01 36.40 13.01L36.40 13.01L36.40 13.01Q37.45 13.01 38.09 12.45L38.09 12.45L38.09 12.45Q38.72 11.90 38.72 11.00L38.72 11.00L38.72 11.00Q38.72 10.35 38.29 9.90L38.29 9.90L38.29 9.90Q37.86 9.46 37.30 9.27L37.30 9.27L37.30 9.27Q36.74 9.09 35.88 8.77L35.88 8.77L35.88 8.77Q35.01 8.46 34.47 8.13L34.47 8.13L34.47 8.13Q33.19 7.38 33.19 6.08L33.19 6.08L33.19 6.08Q33.19 4.83 34.10 4.08L34.10 4.08L34.10 4.08Q35 3.33 36.44 3.33L36.44 3.33L36.44 3.33Q36.97 3.33 37.71 3.56L37.71 3.56L37.71 3.56Q38.44 3.79 38.46 3.79L38.46 3.79L38.46 3.79Q38.50 3.79 38.61 3.74L38.61 3.74L38.61 3.74Q38.72 3.68 38.78 3.68L38.78 3.68L38.78 3.68Q38.96 3.68 38.99 3.79L38.99 3.79L38.99 3.79Q39.28 5.49 39.28 5.70L39.28 5.70L39.28 5.70Q39.28 6.09 39.09 6.09L39.09 6.09L39.09 6.09Q38.96 6.09 38.89 5.89L38.89 5.89L38.89 5.89Q38.72 5.49 38.56 5.24L38.56 5.24L38.56 5.24Q38.40 4.98 38.33 4.91L38.33 4.91L38.33 4.91Q38.26 4.84 37.97 4.58L37.97 4.58L37.97 4.58Q37.21 3.91 36.13 3.91L36.13 3.91L36.13 3.91Q35.27 3.91 34.68 4.33L34.68 4.33L34.68 4.33Q34.09 4.75 34.09 5.46L34.09 5.46L34.09 5.46Q34.09 6.09 34.43 6.50L34.43 6.50L34.43 6.50Q34.78 6.90 35.35 7.13L35.35 7.13L35.35 7.13Q35.92 7.35 36.55 7.55L36.55 7.55L36.55 7.55Q37.18 7.74 37.89 8.09L37.89 8.09L37.89 8.09Q38.60 8.44 39.06 8.93L39.06 8.93L39.06 8.93Q39.62 9.53 39.62 10.43L39.62 10.43L39.62 10.43Q39.62 11.90 38.68 12.76L38.68 12.76L38.68 12.76Q37.74 13.62 36.36 13.62L36.36 13.62L36.36 13.62Q35.39 13.62 34.80 13.52L34.80 13.52L34.80 13.52Q34.22 13.41 33.60 13.09L33.60 13.09L33.60 13.09Q33.42 12.98 33.17 12.00L33.17 12.00L33.17 12.00Q32.91 11.02 32.91 10.82ZM47.71 3.65L47.71 3.65L47.71 3.65Q47.71 3.50 48.10 3.50L48.10 3.50L48.10 3.50Q48.24 3.50 48.75 3.53L48.75 3.53L48.75 3.53Q49.25 3.56 49.69 3.56L49.69 3.56L49.69 3.56Q49.95 3.56 50.20 3.54L50.20 3.54L50.20 3.54Q50.44 3.53 50.92 3.53L50.92 3.53L50.92 3.53Q51.23 3.53 51.23 3.72L51.23 3.72L51.23 3.72Q51.23 3.96 50.74 3.96L50.74 3.96L50.74 3.96Q50.46 3.96 50.33 4.54L50.33 4.54L50.33 4.54Q50.20 5.11 50.20 5.71L50.20 5.71L50.20 6.23L50.20 6.23Q50.20 6.57 50.19 6.99L50.19 6.99L50.19 6.99Q50.18 7.42 50.18 7.52L50.18 7.52L50.18 7.52Q50.18 7.87 50.26 7.97L50.26 7.97L50.26 7.97Q50.34 8.06 50.65 8.06L50.65 8.06L50.65 8.06Q50.68 8.06 51.20 8.06L51.20 8.06L51.20 8.06Q51.72 8.05 52.95 8.05L52.95 8.05L52.95 8.05Q53.06 8.05 53.33 8.06L53.33 8.06L53.33 8.06Q53.59 8.06 54.20 8.07L54.20 8.07L54.20 8.07Q54.81 8.08 55.59 8.08L55.59 8.08L55.59 8.08Q55.69 8.08 55.72 7.84L55.72 7.84L55.72 7.84Q55.75 7.56 55.75 6.13L55.75 6.13L55.75 5.38L55.75 5.38Q55.75 4.83 55.63 4.51L55.63 4.51L55.63 4.51Q55.51 4.19 55.34 4.09L55.34 4.09L55.34 4.09Q55.16 3.99 54.98 3.96L54.98 3.96L54.98 3.96Q54.81 3.93 54.69 3.88L54.69 3.88L54.69 3.88Q54.57 3.84 54.57 3.70L54.57 3.70L54.57 3.70Q54.57 3.56 55.12 3.56L55.12 3.56L55.12 3.56Q55.26 3.56 55.72 3.57L55.72 3.57L55.72 3.57Q56.18 3.58 56.48 3.58L56.48 3.58L56.48 3.58Q56.62 3.58 56.95 3.57L56.95 3.57L56.95 3.57Q57.29 3.56 57.57 3.56L57.57 3.56L57.57 3.56Q57.89 3.56 57.89 3.74L57.89 3.74L57.89 3.74Q57.89 3.92 57.69 3.92L57.69 3.92L57.69 3.92Q57.30 3.92 57.10 4.16L57.10 4.16L57.10 4.16Q56.90 4.40 56.90 4.79L56.90 4.79L56.90 4.79Q56.90 5.25 56.88 6.42L56.88 6.42L56.88 6.42Q56.85 7.59 56.85 8.19L56.85 8.19L56.85 8.19Q56.85 8.51 56.84 9.20L56.84 9.20L56.84 9.20Q56.83 9.90 56.83 10.29L56.83 10.29L56.83 10.81L56.83 10.81Q56.83 11.23 56.85 11.58L56.85 11.58L56.85 11.58Q56.88 11.94 56.88 12.10L56.88 12.10L56.88 12.10Q56.88 13.01 58.06 13.13L58.06 13.13L58.06 13.13Q58.23 13.13 58.23 13.29L58.23 13.29L58.23 13.29Q58.23 13.38 58.09 13.41L58.09 13.41L58.09 13.41Q57.95 13.44 57.54 13.44L57.54 13.44L57.54 13.44Q57.39 13.44 57.03 13.40L57.03 13.40L57.03 13.40Q56.67 13.37 56.46 13.37L56.46 13.37L56.46 13.37Q56.21 13.37 55.85 13.40L55.85 13.40L55.85 13.40Q55.50 13.44 55.15 13.44L55.15 13.44L55.15 13.44Q54.98 13.44 54.91 13.44L54.91 13.44L54.91 13.44Q54.84 13.44 54.76 13.42L54.76 13.42L54.76 13.42Q54.68 13.40 54.66 13.36L54.66 13.36L54.66 13.36Q54.64 13.33 54.64 13.26L54.64 13.26L54.64 13.26Q54.64 13.17 54.78 13.10L54.78 13.10L54.78 13.10Q54.92 13.03 55.09 12.99L55.09 12.99L55.09 12.99Q55.26 12.95 55.42 12.83L55.42 12.83L55.42 12.83Q55.58 12.71 55.61 12.53L55.61 12.53L55.61 12.53Q55.71 12.03 55.71 11.51L55.71 11.51L55.71 11.51Q55.71 11.37 55.71 11.12L55.71 11.12L55.71 11.12Q55.72 10.86 55.72 10.75L55.72 10.75L55.72 10.75Q55.72 10.50 55.73 9.93L55.73 9.93L55.73 9.93Q55.75 9.35 55.75 9.03L55.75 9.03L55.75 9.03Q55.75 8.82 55.58 8.74L55.58 8.74L55.58 8.74Q55.41 8.65 54.87 8.65L54.87 8.65L54.87 8.65Q54.66 8.65 53.90 8.68L53.90 8.68L53.14 8.69L53.14 8.69Q52.53 8.69 51.76 8.67L51.76 8.67L51.76 8.67Q50.99 8.65 50.57 8.65L50.57 8.65L50.57 8.65Q50.36 8.65 50.29 8.74L50.29 8.74L50.29 8.74Q50.22 8.82 50.22 9.17L50.22 9.17L50.22 9.17Q50.22 9.52 50.19 10.08L50.19 10.08L50.19 10.08Q50.16 10.64 50.16 10.89L50.16 10.89L50.16 11.49L50.16 11.49Q50.16 12.10 50.27 12.39L50.27 12.39L50.27 12.39Q50.39 12.68 50.82 12.96L50.82 12.96L50.82 12.96Q50.93 13.03 51.42 13.03L51.42 13.03L51.42 13.03Q51.52 13.03 51.60 13.08L51.60 13.08L51.60 13.08Q51.69 13.13 51.69 13.19L51.69 13.19L51.69 13.19Q51.69 13.44 51.24 13.44L51.24 13.44L51.24 13.44Q50.82 13.44 50.55 13.41L50.55 13.41L50.55 13.41Q50.27 13.38 50.08 13.38L50.08 13.38L50.08 13.38Q49.69 13.38 49.24 13.42L49.24 13.42L49.24 13.42Q48.79 13.45 48.57 13.45L48.57 13.45L48.57 13.45Q47.91 13.45 47.91 13.24L47.91 13.24L47.91 13.24Q47.91 13.12 48.04 13.07L48.04 13.07L48.04 13.07Q48.17 13.02 48.34 13.00L48.34 13.00L48.34 13.00Q48.51 12.98 48.69 12.82L48.69 12.82L48.69 12.82Q48.87 12.66 48.94 12.35L48.94 12.35L48.94 12.35Q48.99 12.11 49.06 10.91L49.06 10.91L49.06 10.91Q49.13 9.70 49.13 8.61L49.13 8.61L49.13 7.81L49.13 7.81Q49.13 7.63 49.13 7.12L49.13 7.12L49.13 7.12Q49.14 6.61 49.14 6.30L49.14 6.30L49.14 6.30Q49.14 5.24 49.06 4.63L49.06 4.63L49.06 4.63Q49.01 4.28 48.69 4.09L48.69 4.09L48.69 4.09Q48.36 3.89 48.01 3.89L48.01 3.89L48.01 3.89Q47.87 3.89 47.79 3.80L47.79 3.80L47.79 3.80Q47.71 3.71 47.71 3.65ZM65.79 3.71L65.79 3.71L65.79 3.71Q65.79 3.50 66.18 3.50L66.18 3.50L66.18 3.50Q66.32 3.50 66.82 3.53L66.82 3.53L66.82 3.53Q67.33 3.56 67.76 3.56L67.76 3.56L67.76 3.56Q68.03 3.56 68.27 3.54L68.27 3.54L68.27 3.54Q68.52 3.53 68.99 3.53L68.99 3.53L68.99 3.53Q69.37 3.53 69.37 3.72L69.37 3.72L69.37 3.72Q69.37 3.84 68.73 4.10L68.73 4.10L68.73 4.10Q68.28 4.28 68.28 5.71L68.28 5.71L68.28 5.71Q68.28 7.60 68.26 9.05L68.26 9.05L68.26 9.05Q68.24 10.50 68.24 10.89L68.24 10.89L68.24 10.89Q68.24 12.07 68.59 12.59L68.59 12.59L68.59 12.59Q68.89 13.02 69.26 13.02L69.26 13.02L69.26 13.02Q69.29 13.02 69.40 13.03L69.40 13.03L69.40 13.03Q69.51 13.03 69.54 13.03L69.54 13.03L69.54 13.03Q69.64 13.03 69.73 13.08L69.73 13.08L69.73 13.08Q69.83 13.13 69.83 13.19L69.83 13.19L69.83 13.19Q69.83 13.34 69.75 13.39L69.75 13.39L69.75 13.39Q69.68 13.44 69.48 13.44L69.48 13.44L69.48 13.44Q69.06 13.44 68.70 13.41L68.70 13.41L68.70 13.41Q68.35 13.38 68.15 13.38L68.15 13.38L68.15 13.38Q67.76 13.38 67.30 13.42L67.30 13.42L67.30 13.42Q66.84 13.45 66.61 13.45L66.61 13.45L66.61 13.45Q65.98 13.45 65.98 13.24L65.98 13.24L65.98 13.24Q65.98 13.12 66.11 13.07L66.11 13.07L66.11 13.07Q66.25 13.02 66.42 13.00L66.42 13.00L66.42 13.00Q66.58 12.98 66.77 12.82L66.77 12.82L66.77 12.82Q66.95 12.66 67.02 12.35L67.02 12.35L67.02 12.35Q67.05 12.25 67.11 10.76L67.11 10.76L67.11 10.76Q67.17 9.27 67.17 8.61L67.17 8.61L67.17 7.81L67.17 7.81Q67.17 7.63 67.18 7.12L67.18 7.12L67.18 7.12Q67.19 6.61 67.19 6.30L67.19 6.30L67.19 5.66L67.19 5.66Q67.19 5.04 67.13 4.63L67.13 4.63L67.13 4.63Q67.09 4.30 66.76 4.12L66.76 4.12L66.76 4.12Q66.43 3.93 66.08 3.92L66.08 3.92L66.08 3.92Q65.79 3.91 65.79 3.71ZM77.71 8.69L77.71 8.69L77.71 8.69Q77.71 6.34 79.13 4.84L79.13 4.84L79.13 4.84Q80.54 3.33 83.13 3.33L83.13 3.33L83.13 3.33Q84.34 3.33 85.30 3.68L85.30 3.68L85.30 3.68Q86.27 4.03 86.83 4.54L86.83 4.54L86.83 4.54Q87.39 5.05 87.77 5.71L87.77 5.71L87.77 5.71Q88.14 6.37 88.28 6.92L88.28 6.92L88.28 6.92Q88.42 7.48 88.42 7.95L88.42 7.95L88.42 7.95Q88.42 9.86 87.68 11.16L87.68 11.16L87.68 11.16Q86.94 12.47 85.73 13.07L85.73 13.07L85.73 13.07Q84.52 13.66 82.94 13.66L82.94 13.66L82.94 13.66Q81.27 13.66 80.06 12.94L80.06 12.94L80.06 12.94Q78.85 12.21 78.28 11.10L78.28 11.10L78.28 11.10Q77.71 10.00 77.71 8.69ZM78.95 7.98L78.95 7.98L78.95 7.98Q78.95 8.54 79.10 9.19L79.10 9.19L79.10 9.19Q79.25 9.84 79.60 10.54L79.60 10.54L79.60 10.54Q79.95 11.23 80.45 11.78L80.45 11.78L80.45 11.78Q80.95 12.33 81.71 12.69L81.71 12.69L81.71 12.69Q82.47 13.05 83.38 13.05L83.38 13.05L83.38 13.05Q83.86 13.05 84.39 12.90L84.39 12.90L84.39 12.90Q84.91 12.75 85.43 12.45L85.43 12.45L85.43 12.45Q85.95 12.14 86.35 11.70L86.35 11.70L86.35 11.70Q86.76 11.26 87.02 10.62L87.02 10.62L87.02 10.62Q87.28 9.98 87.28 9.24L87.28 9.24L87.28 9.24Q87.28 6.71 85.95 5.30L85.95 5.30L85.95 5.30Q84.62 3.89 82.66 3.89L82.66 3.89L82.66 3.89Q81.12 3.89 80.03 4.93L80.03 4.93L80.03 4.93Q78.95 5.96 78.95 7.98ZM96.11 3.77L96.11 3.77L96.11 3.77Q96.11 3.68 96.21 3.60L96.21 3.60L96.21 3.60Q96.31 3.53 96.46 3.53L96.46 3.53L96.46 3.53Q96.54 3.53 96.74 3.54L96.74 3.54L96.74 3.54Q96.94 3.54 96.99 3.54L96.99 3.54L96.99 3.54Q97.20 3.54 97.38 3.53L97.38 3.53L97.38 3.53Q97.57 3.51 97.68 3.51L97.68 3.51L97.68 3.51Q97.80 3.51 97.97 3.59L97.97 3.59L97.97 3.59Q98.14 3.67 98.17 3.75L98.17 3.75L98.17 3.75Q98.20 3.79 98.32 3.94L98.32 3.94L98.32 3.94Q98.45 4.09 98.66 4.33L98.66 4.33L98.66 4.33Q98.87 4.56 99.04 4.79L99.04 4.79L99.04 4.79Q100.94 7.27 104.13 10.77L104.13 10.77L104.13 10.77Q104.22 10.86 104.33 10.99L104.33 10.99L104.33 10.99Q104.45 11.12 104.50 11.18L104.50 11.18L104.50 11.18Q104.55 11.24 104.61 11.30L104.61 11.30L104.61 11.30Q104.66 11.35 104.70 11.38L104.70 11.38L104.70 11.38Q104.73 11.40 104.76 11.40L104.76 11.40L104.76 11.40Q104.90 11.40 104.90 10.53L104.90 10.53L104.90 8.89L104.90 8.89Q104.90 7.95 104.89 7.31L104.89 7.31L104.89 7.31Q104.89 6.66 104.88 6.38L104.88 6.38L104.88 6.38Q104.87 6.09 104.87 6.02L104.87 6.02L104.87 5.92L104.87 5.92Q104.87 5.45 104.81 5.11L104.81 5.11L104.81 5.11Q104.75 4.77 104.66 4.59L104.66 4.59L104.66 4.59Q104.58 4.41 104.42 4.28L104.42 4.28L104.42 4.28Q104.26 4.16 104.15 4.12L104.15 4.12L104.15 4.12Q104.03 4.09 103.82 4.05L103.82 4.05L103.82 4.05Q103.61 4.00 103.53 3.98L103.53 3.98L103.53 3.98Q103.25 3.89 103.25 3.74L103.25 3.74L103.25 3.74Q103.25 3.53 103.52 3.53L103.52 3.53L103.52 3.53Q103.60 3.53 104.19 3.54L104.19 3.54L104.19 3.54Q104.78 3.54 104.85 3.54L104.85 3.54L104.85 3.54Q105.18 3.54 105.59 3.53L105.59 3.53L105.59 3.53Q106.01 3.51 106.11 3.51L106.11 3.51L106.11 3.51Q106.34 3.51 106.44 3.56L106.44 3.56L106.44 3.56Q106.53 3.61 106.53 3.75L106.53 3.75L106.53 3.75Q106.53 3.81 106.45 3.86L106.45 3.86L106.45 3.86Q106.37 3.91 106.29 3.94L106.29 3.94L106.29 3.94Q106.20 3.98 106.12 4.00L106.12 4.00L106.04 4.03L106.04 4.03Q105.57 4.28 105.57 5.61L105.57 5.61L105.57 6.15L105.57 6.15Q105.57 7.21 105.50 9.83L105.50 9.83L105.50 9.83Q105.42 12.46 105.42 13.08L105.42 13.08L105.42 13.36L105.42 13.36Q105.42 13.68 105.22 13.68L105.22 13.68L105.22 13.68Q105.10 13.68 105 13.58L105 13.58L105 13.58Q100.35 8.19 99.45 7.17L99.45 7.17L99.45 7.17Q98.55 6.16 98.45 6.16L98.45 6.16L98.45 6.16Q98.31 6.16 98.31 7.11L98.31 7.11L98.31 7.11Q98.31 8.44 98.25 9.97L98.25 9.97L98.25 9.97Q98.20 11.51 98.20 11.65L98.20 11.65L98.20 11.65Q98.20 12.28 98.41 12.61L98.41 12.61L98.41 12.61Q98.63 12.94 98.88 12.98L98.88 12.98L98.88 12.98Q99.13 13.02 99.35 13.07L99.35 13.07L99.35 13.07Q99.57 13.12 99.57 13.26L99.57 13.26L99.57 13.26Q99.57 13.41 99.52 13.45L99.52 13.45L99.52 13.45Q99.47 13.50 99.34 13.50L99.34 13.50L99.34 13.50Q99.25 13.50 98.90 13.48L98.90 13.48L98.90 13.48Q98.56 13.47 97.85 13.47L97.85 13.47L97.85 13.47Q97.72 13.47 97.33 13.48L97.33 13.48L97.33 13.48Q96.94 13.50 96.66 13.50L96.66 13.50L96.66 13.50Q96.35 13.50 96.35 13.27L96.35 13.27L96.35 13.27Q96.35 13.15 96.53 13.11L96.53 13.11L96.53 13.11Q96.71 13.08 96.98 12.89L96.98 12.89L96.98 12.89Q97.24 12.71 97.38 12.21L97.38 12.21L97.38 12.21Q97.47 11.89 97.59 9.60L97.59 9.60L97.59 9.60Q97.72 7.32 97.72 6.45L97.72 6.45L97.72 6.45Q97.72 5.25 97.38 4.65L97.38 4.65L97.38 4.65Q97.05 4.06 96.29 3.98L96.29 3.98L96.29 3.98Q96.11 3.96 96.11 3.77Z"></path></g></svg>